<mxfile host="app.diagrams.net" modified="2022-04-13T12:06:54.230Z" agent="5.0 (Windows NT 10.0; Win64; x64) AppleWebKit/537.36 (KHTML, like Gecko) Chrome/100.0.4896.88 Safari/537.36" etag="OWUP7E-Y9t1P7EZaOZhn" version="16.2.7" type="github">
  <diagram id="4HuPe2wkKWoafJd6I38D" name="Page-1">
    <mxGraphModel dx="782" dy="468" grid="1" gridSize="10" guides="1" tooltips="1" connect="1" arrows="1" fold="1" page="1" pageScale="1" pageWidth="827" pageHeight="1169" math="0" shadow="0">
      <root>
        <mxCell id="0" />
        <mxCell id="1" parent="0" />
        <mxCell id="_LZO-sBbdoh7nSNOkgJB-11" style="edgeStyle=orthogonalEdgeStyle;rounded=0;orthogonalLoop=1;jettySize=auto;html=1;" parent="1" edge="1">
          <mxGeometry relative="1" as="geometry">
            <mxPoint x="640" y="50" as="targetPoint" />
            <mxPoint x="640" y="50" as="sourcePoint" />
          </mxGeometry>
        </mxCell>
        <mxCell id="_LZO-sBbdoh7nSNOkgJB-5" value="" style="rounded=1;whiteSpace=wrap;html=1;" parent="1" vertex="1">
          <mxGeometry x="110" y="555" width="290" height="205" as="geometry" />
        </mxCell>
        <mxCell id="_zzJCu2hph6XqkXQWisP-1" value="" style="rounded=1;whiteSpace=wrap;html=1;" parent="1" vertex="1">
          <mxGeometry x="440" y="555" width="290" height="205" as="geometry" />
        </mxCell>
        <mxCell id="_zzJCu2hph6XqkXQWisP-3" value="" style="sketch=0;outlineConnect=0;fontColor=#232F3E;gradientColor=none;fillColor=#232F3D;strokeColor=none;dashed=0;verticalLabelPosition=bottom;verticalAlign=top;align=center;html=1;fontSize=12;fontStyle=0;aspect=fixed;pointerEvents=1;shape=mxgraph.aws4.corporate_data_center;" parent="1" vertex="1">
          <mxGeometry x="367" y="670" width="53" height="78" as="geometry" />
        </mxCell>
        <mxCell id="_zzJCu2hph6XqkXQWisP-4" value="" style="sketch=0;outlineConnect=0;fontColor=#232F3E;gradientColor=none;fillColor=#232F3D;strokeColor=none;dashed=0;verticalLabelPosition=bottom;verticalAlign=top;align=center;html=1;fontSize=12;fontStyle=0;aspect=fixed;pointerEvents=1;shape=mxgraph.aws4.corporate_data_center;" parent="1" vertex="1">
          <mxGeometry x="710" y="670" width="53" height="78" as="geometry" />
        </mxCell>
        <mxCell id="_zzJCu2hph6XqkXQWisP-5" value="US ACME DC" style="text;html=1;strokeColor=none;fillColor=none;align=center;verticalAlign=middle;whiteSpace=wrap;rounded=0;" parent="1" vertex="1">
          <mxGeometry x="360" y="760" width="60" height="30" as="geometry" />
        </mxCell>
        <mxCell id="_zzJCu2hph6XqkXQWisP-6" value="EU ACME DC" style="text;html=1;strokeColor=none;fillColor=none;align=center;verticalAlign=middle;whiteSpace=wrap;rounded=0;" parent="1" vertex="1">
          <mxGeometry x="706.5" y="760" width="60" height="30" as="geometry" />
        </mxCell>
        <mxCell id="_zzJCu2hph6XqkXQWisP-7" value="" style="sketch=0;points=[[0,0,0],[0.25,0,0],[0.5,0,0],[0.75,0,0],[1,0,0],[0,1,0],[0.25,1,0],[0.5,1,0],[0.75,1,0],[1,1,0],[0,0.25,0],[0,0.5,0],[0,0.75,0],[1,0.25,0],[1,0.5,0],[1,0.75,0]];outlineConnect=0;fontColor=#232F3E;gradientColor=#FF5252;gradientDirection=north;fillColor=#C7131F;strokeColor=#ffffff;dashed=0;verticalLabelPosition=bottom;verticalAlign=top;align=center;html=1;fontSize=12;fontStyle=0;aspect=fixed;shape=mxgraph.aws4.resourceIcon;resIcon=mxgraph.aws4.business_application;" parent="1" vertex="1">
          <mxGeometry x="200" y="632.5" width="50" height="50" as="geometry" />
        </mxCell>
        <mxCell id="_zzJCu2hph6XqkXQWisP-8" value="" style="sketch=0;points=[[0,0,0],[0.25,0,0],[0.5,0,0],[0.75,0,0],[1,0,0],[0,1,0],[0.25,1,0],[0.5,1,0],[0.75,1,0],[1,1,0],[0,0.25,0],[0,0.5,0],[0,0.75,0],[1,0.25,0],[1,0.5,0],[1,0.75,0]];outlineConnect=0;fontColor=#232F3E;gradientColor=#FF5252;gradientDirection=north;fillColor=#C7131F;strokeColor=#ffffff;dashed=0;verticalLabelPosition=bottom;verticalAlign=top;align=center;html=1;fontSize=12;fontStyle=0;aspect=fixed;shape=mxgraph.aws4.resourceIcon;resIcon=mxgraph.aws4.business_application;" parent="1" vertex="1">
          <mxGeometry x="528.5" y="632.5" width="50" height="50" as="geometry" />
        </mxCell>
        <mxCell id="_zzJCu2hph6XqkXQWisP-9" value="" style="sketch=0;points=[[0,0,0],[0.25,0,0],[0.5,0,0],[0.75,0,0],[1,0,0],[0,1,0],[0.25,1,0],[0.5,1,0],[0.75,1,0],[1,1,0],[0,0.25,0],[0,0.5,0],[0,0.75,0],[1,0.25,0],[1,0.5,0],[1,0.75,0]];outlineConnect=0;fontColor=#232F3E;gradientColor=#FF5252;gradientDirection=north;fillColor=#C7131F;strokeColor=#ffffff;dashed=0;verticalLabelPosition=bottom;verticalAlign=top;align=center;html=1;fontSize=12;fontStyle=0;aspect=fixed;shape=mxgraph.aws4.resourceIcon;resIcon=mxgraph.aws4.business_application;" parent="1" vertex="1">
          <mxGeometry x="550" y="660" width="40" height="40" as="geometry" />
        </mxCell>
        <mxCell id="_zzJCu2hph6XqkXQWisP-10" value="" style="sketch=0;points=[[0,0,0],[0.25,0,0],[0.5,0,0],[0.75,0,0],[1,0,0],[0,1,0],[0.25,1,0],[0.5,1,0],[0.75,1,0],[1,1,0],[0,0.25,0],[0,0.5,0],[0,0.75,0],[1,0.25,0],[1,0.5,0],[1,0.75,0]];outlineConnect=0;fontColor=#232F3E;gradientColor=#FF5252;gradientDirection=north;fillColor=#C7131F;strokeColor=#ffffff;dashed=0;verticalLabelPosition=bottom;verticalAlign=top;align=center;html=1;fontSize=12;fontStyle=0;aspect=fixed;shape=mxgraph.aws4.resourceIcon;resIcon=mxgraph.aws4.business_application;" parent="1" vertex="1">
          <mxGeometry x="220" y="660" width="40" height="40" as="geometry" />
        </mxCell>
        <mxCell id="_zzJCu2hph6XqkXQWisP-12" value="Text" style="text;html=1;strokeColor=none;fillColor=none;align=center;verticalAlign=middle;whiteSpace=wrap;rounded=0;" parent="1" vertex="1">
          <mxGeometry x="370" y="570" width="60" height="30" as="geometry" />
        </mxCell>
        <mxCell id="_zzJCu2hph6XqkXQWisP-13" value="backend apps" style="text;html=1;strokeColor=none;fillColor=none;align=center;verticalAlign=middle;whiteSpace=wrap;rounded=0;" parent="1" vertex="1">
          <mxGeometry x="200" y="710" width="60" height="30" as="geometry" />
        </mxCell>
        <mxCell id="_zzJCu2hph6XqkXQWisP-14" value="backend apps" style="text;html=1;strokeColor=none;fillColor=none;align=center;verticalAlign=middle;whiteSpace=wrap;rounded=0;" parent="1" vertex="1">
          <mxGeometry x="528.5" y="710" width="60" height="30" as="geometry" />
        </mxCell>
        <mxCell id="_zzJCu2hph6XqkXQWisP-18" value="" style="sketch=0;points=[[0,0,0],[0.25,0,0],[0.5,0,0],[0.75,0,0],[1,0,0],[0,1,0],[0.25,1,0],[0.5,1,0],[0.75,1,0],[1,1,0],[0,0.25,0],[0,0.5,0],[0,0.75,0],[1,0.25,0],[1,0.5,0],[1,0.75,0]];outlineConnect=0;fontColor=#232F3E;gradientColor=#945DF2;gradientDirection=north;fillColor=#5A30B5;strokeColor=#ffffff;dashed=0;verticalLabelPosition=bottom;verticalAlign=top;align=center;html=1;fontSize=12;fontStyle=0;aspect=fixed;shape=mxgraph.aws4.resourceIcon;resIcon=mxgraph.aws4.direct_connect;" parent="1" vertex="1">
          <mxGeometry x="230" y="490" width="30" height="30" as="geometry" />
        </mxCell>
        <mxCell id="_zzJCu2hph6XqkXQWisP-19" value="" style="sketch=0;points=[[0,0,0],[0.25,0,0],[0.5,0,0],[0.75,0,0],[1,0,0],[0,1,0],[0.25,1,0],[0.5,1,0],[0.75,1,0],[1,1,0],[0,0.25,0],[0,0.5,0],[0,0.75,0],[1,0.25,0],[1,0.5,0],[1,0.75,0]];outlineConnect=0;fontColor=#232F3E;gradientColor=#945DF2;gradientDirection=north;fillColor=#5A30B5;strokeColor=#ffffff;dashed=0;verticalLabelPosition=bottom;verticalAlign=top;align=center;html=1;fontSize=12;fontStyle=0;aspect=fixed;shape=mxgraph.aws4.resourceIcon;resIcon=mxgraph.aws4.direct_connect;" parent="1" vertex="1">
          <mxGeometry x="555" y="490" width="30" height="30" as="geometry" />
        </mxCell>
        <mxCell id="_zzJCu2hph6XqkXQWisP-20" value="direct connect" style="text;html=1;strokeColor=none;fillColor=none;align=center;verticalAlign=middle;whiteSpace=wrap;rounded=0;" parent="1" vertex="1">
          <mxGeometry x="280" y="490" width="60" height="30" as="geometry" />
        </mxCell>
        <mxCell id="_zzJCu2hph6XqkXQWisP-21" value="direct connect" style="text;html=1;strokeColor=none;fillColor=none;align=center;verticalAlign=middle;whiteSpace=wrap;rounded=0;" parent="1" vertex="1">
          <mxGeometry x="600" y="490" width="60" height="30" as="geometry" />
        </mxCell>
        <mxCell id="_zzJCu2hph6XqkXQWisP-27" value="" style="endArrow=none;html=1;rounded=0;" parent="1" edge="1">
          <mxGeometry width="50" height="50" relative="1" as="geometry">
            <mxPoint x="244.5" y="555" as="sourcePoint" />
            <mxPoint x="245" y="555" as="targetPoint" />
            <Array as="points">
              <mxPoint x="245" y="525" />
            </Array>
          </mxGeometry>
        </mxCell>
        <mxCell id="_zzJCu2hph6XqkXQWisP-28" value="" style="endArrow=none;html=1;rounded=0;" parent="1" edge="1">
          <mxGeometry width="50" height="50" relative="1" as="geometry">
            <mxPoint x="569.5" y="550" as="sourcePoint" />
            <mxPoint x="570" y="550" as="targetPoint" />
            <Array as="points">
              <mxPoint x="570" y="520" />
            </Array>
          </mxGeometry>
        </mxCell>
        <mxCell id="_zzJCu2hph6XqkXQWisP-29" value="" style="line;strokeWidth=2;direction=south;html=1;" parent="1" vertex="1">
          <mxGeometry x="240" y="450" width="10" height="30" as="geometry" />
        </mxCell>
        <mxCell id="_zzJCu2hph6XqkXQWisP-32" value="" style="line;strokeWidth=2;direction=south;html=1;" parent="1" vertex="1">
          <mxGeometry x="568.5" y="450" width="10" height="30" as="geometry" />
        </mxCell>
        <mxCell id="_zzJCu2hph6XqkXQWisP-36" value="" style="rounded=1;arcSize=10;dashed=0;fillColor=none;gradientColor=none;strokeWidth=2;" parent="1" vertex="1">
          <mxGeometry x="110" y="250" width="620" height="200" as="geometry" />
        </mxCell>
        <mxCell id="_zzJCu2hph6XqkXQWisP-37" value="" style="dashed=0;html=1;shape=mxgraph.aws3.virtual_private_cloud;fillColor=#F58536;gradientColor=none;dashed=0;" parent="1" vertex="1">
          <mxGeometry x="389.75" y="230" width="52" height="36" as="geometry" />
        </mxCell>
        <mxCell id="nmErx-qGgB_WlYyl9HkI-1" value="" style="sketch=0;outlineConnect=0;fontColor=#232F3E;gradientColor=none;fillColor=#B0084D;strokeColor=none;dashed=0;verticalLabelPosition=bottom;verticalAlign=top;align=center;html=1;fontSize=12;fontStyle=0;aspect=fixed;pointerEvents=1;shape=mxgraph.aws4.organizations_account;" vertex="1" parent="1">
          <mxGeometry x="699.5" y="280" width="50.5" height="53.23" as="geometry" />
        </mxCell>
        <mxCell id="nmErx-qGgB_WlYyl9HkI-2" value="network account" style="text;html=1;strokeColor=none;fillColor=none;align=center;verticalAlign=middle;whiteSpace=wrap;rounded=0;" vertex="1" parent="1">
          <mxGeometry x="730" y="333.23" width="60" height="30" as="geometry" />
        </mxCell>
        <mxCell id="nmErx-qGgB_WlYyl9HkI-3" value="" style="sketch=0;points=[[0,0,0],[0.25,0,0],[0.5,0,0],[0.75,0,0],[1,0,0],[0,1,0],[0.25,1,0],[0.5,1,0],[0.75,1,0],[1,1,0],[0,0.25,0],[0,0.5,0],[0,0.75,0],[1,0.25,0],[1,0.5,0],[1,0.75,0]];outlineConnect=0;fontColor=#232F3E;gradientColor=#945DF2;gradientDirection=north;fillColor=#5A30B5;strokeColor=#ffffff;dashed=0;verticalLabelPosition=bottom;verticalAlign=top;align=center;html=1;fontSize=12;fontStyle=0;aspect=fixed;shape=mxgraph.aws4.resourceIcon;resIcon=mxgraph.aws4.transit_gateway;" vertex="1" parent="1">
          <mxGeometry x="385.75" y="290" width="55.5" height="55.5" as="geometry" />
        </mxCell>
        <mxCell id="nmErx-qGgB_WlYyl9HkI-4" value="transit gateway" style="text;html=1;strokeColor=none;fillColor=none;align=center;verticalAlign=middle;whiteSpace=wrap;rounded=0;" vertex="1" parent="1">
          <mxGeometry x="385.75" y="363.23" width="60" height="30" as="geometry" />
        </mxCell>
        <mxCell id="nmErx-qGgB_WlYyl9HkI-5" value="" style="rounded=1;arcSize=10;dashed=0;fillColor=none;gradientColor=none;strokeWidth=2;" vertex="1" parent="1">
          <mxGeometry x="105" y="20" width="250" height="200" as="geometry" />
        </mxCell>
        <mxCell id="nmErx-qGgB_WlYyl9HkI-6" value="" style="rounded=1;arcSize=10;dashed=0;fillColor=none;gradientColor=none;strokeWidth=2;" vertex="1" parent="1">
          <mxGeometry x="470" y="20" width="250" height="200" as="geometry" />
        </mxCell>
        <mxCell id="nmErx-qGgB_WlYyl9HkI-7" value="" style="dashed=0;html=1;shape=mxgraph.aws3.virtual_private_cloud;fillColor=#F58536;gradientColor=none;dashed=0;" vertex="1" parent="1">
          <mxGeometry x="323.32" y="150" width="52" height="36" as="geometry" />
        </mxCell>
        <mxCell id="nmErx-qGgB_WlYyl9HkI-8" value="" style="dashed=0;html=1;shape=mxgraph.aws3.virtual_private_cloud;fillColor=#F58536;gradientColor=none;dashed=0;" vertex="1" parent="1">
          <mxGeometry x="445.75" y="150" width="52" height="36" as="geometry" />
        </mxCell>
        <mxCell id="nmErx-qGgB_WlYyl9HkI-9" value="" style="sketch=0;outlineConnect=0;fontColor=#232F3E;gradientColor=none;fillColor=#B0084D;strokeColor=none;dashed=0;verticalLabelPosition=bottom;verticalAlign=top;align=center;html=1;fontSize=12;fontStyle=0;aspect=fixed;pointerEvents=1;shape=mxgraph.aws4.organizations_account;" vertex="1" parent="1">
          <mxGeometry x="699.5" y="52.77" width="35.32" height="37.23" as="geometry" />
        </mxCell>
        <mxCell id="nmErx-qGgB_WlYyl9HkI-10" value="" style="sketch=0;outlineConnect=0;fontColor=#232F3E;gradientColor=none;fillColor=#B0084D;strokeColor=none;dashed=0;verticalLabelPosition=bottom;verticalAlign=top;align=center;html=1;fontSize=12;fontStyle=0;aspect=fixed;pointerEvents=1;shape=mxgraph.aws4.organizations_account;" vertex="1" parent="1">
          <mxGeometry x="340" y="52.769999999999996" width="35.32" height="37.23" as="geometry" />
        </mxCell>
        <mxCell id="nmErx-qGgB_WlYyl9HkI-11" value="app account 1" style="text;html=1;strokeColor=none;fillColor=none;align=center;verticalAlign=middle;whiteSpace=wrap;rounded=0;" vertex="1" parent="1">
          <mxGeometry x="340" y="100" width="60" height="30" as="geometry" />
        </mxCell>
        <mxCell id="nmErx-qGgB_WlYyl9HkI-12" value="app account 2" style="text;html=1;strokeColor=none;fillColor=none;align=center;verticalAlign=middle;whiteSpace=wrap;rounded=0;" vertex="1" parent="1">
          <mxGeometry x="710" y="90" width="60" height="30" as="geometry" />
        </mxCell>
        <mxCell id="nmErx-qGgB_WlYyl9HkI-13" value="" style="endArrow=classic;startArrow=classic;html=1;rounded=0;exitX=0.18;exitY=0.19;exitDx=0;exitDy=0;exitPerimeter=0;entryX=0.93;entryY=0.93;entryDx=0;entryDy=0;entryPerimeter=0;" edge="1" parent="1" source="_zzJCu2hph6XqkXQWisP-37" target="nmErx-qGgB_WlYyl9HkI-7">
          <mxGeometry width="50" height="50" relative="1" as="geometry">
            <mxPoint x="335.75" y="250" as="sourcePoint" />
            <mxPoint x="385.75" y="200" as="targetPoint" />
          </mxGeometry>
        </mxCell>
        <mxCell id="nmErx-qGgB_WlYyl9HkI-15" value="" style="endArrow=classic;startArrow=classic;html=1;rounded=0;entryX=0.21;entryY=0.963;entryDx=0;entryDy=0;entryPerimeter=0;exitX=0.75;exitY=0.24;exitDx=0;exitDy=0;exitPerimeter=0;" edge="1" parent="1" source="_zzJCu2hph6XqkXQWisP-37" target="nmErx-qGgB_WlYyl9HkI-8">
          <mxGeometry width="50" height="50" relative="1" as="geometry">
            <mxPoint x="420" y="230" as="sourcePoint" />
            <mxPoint x="381.67999999999984" y="193.48000000000002" as="targetPoint" />
          </mxGeometry>
        </mxCell>
      </root>
    </mxGraphModel>
  </diagram>
</mxfile>
